<?xml version="1.0" encoding="utf-8"?>
<!-- Generator: Adobe Illustrator 28.1.0, SVG Export Plug-In . SVG Version: 6.00 Build 0)  -->
<svg version="1.1" id="Layer_1" xmlns="http://www.w3.org/2000/svg" xmlns:xlink="http://www.w3.org/1999/xlink" x="0px" y="0px"
	 viewBox="0 0 800 800" style="enable-background:new 0 0 800 800;" xml:space="preserve">
<style type="text/css">
	.st0{fill:#AE2A1E;}
</style>
<path class="st0" d="M471.9,248.4L415,139.6c-2.9-5.4-8.5-9.1-15-9.1s-12.1,3.6-14.9,9l-0.1,0.1L135.4,587L471.9,248.4z M671.3,630
	L601,192.7c-1.3-8.1-8.3-14.3-16.7-14.3c-4.7,0-9,1.9-12,5.1l0,0L128.7,630.1l245.4,138.3c7.1,4.1,15.7,6.5,24.8,6.5
	s17.7-2.4,25.1-6.6l-0.2,0.1L671.3,630z M146.6,514.7l73.9-475.2c1.3-8.2,8.3-14.4,16.8-14.4c6.4,0,12.1,3.6,14.9,8.9l0,0.1
	l79.5,149.1L146.6,514.7z"/>
</svg>
