<?xml version="1.0" encoding="utf-8"?>
<!-- Generator: Adobe Illustrator 28.1.0, SVG Export Plug-In . SVG Version: 6.00 Build 0)  -->
<svg version="1.1" id="Layer_1" xmlns="http://www.w3.org/2000/svg" xmlns:xlink="http://www.w3.org/1999/xlink" x="0px" y="0px"
	 viewBox="0 0 800 800" style="enable-background:new 0 0 800 800;" xml:space="preserve">
<style type="text/css">
	.st0{fill-rule:evenodd;clip-rule:evenodd;fill:#AE2A1E;}
</style>
<path class="st0" d="M681.4,0h-576C65.6,0,33.3,32.2,33.3,72.1v656c0,39.8,32.3,72,72.1,72h576c39.8,0,72-32.2,72-72v-656
	C753.4,32.2,721.2,0,681.4,0L681.4,0z M713.4,728c0,17.7-14.3,32-32,32h-576c-17.6,0-32-14.3-32-32v-656c0-17.7,14.4-32,32-32h576
	c17.7,0,32,14.3,32,32V728z M213.3,680l90.1-80l-90.1-80V680L213.3,680z M538.6,355.7c-16.2-16.3-45.8-35.7-95.2-35.7
	c-54.2,0-110.1,14.1-150,27.1V120h-80V467l56.6-25.6c0.9-0.4,92.1-41.3,173.5-41.3c40.6,0,49.6,22.4,50,41v239h79.9V440
	C573.5,434.9,573,390.5,538.6,355.7 M433.4,250h80c36.2-41,54.6-84.6,60-130h-79.9C484.5,165.4,464.8,208.7,433.4,250"/>
</svg>
