<?xml version="1.0" encoding="utf-8"?>
<!-- Generator: Adobe Illustrator 28.1.0, SVG Export Plug-In . SVG Version: 6.00 Build 0)  -->
<svg version="1.1" id="Layer_1" xmlns="http://www.w3.org/2000/svg" xmlns:xlink="http://www.w3.org/1999/xlink" x="0px" y="0px"
	 viewBox="0 0 800 800" style="enable-background:new 0 0 800 800;" xml:space="preserve">
<style type="text/css">
	.st0{fill:#AE2A1E;}
	.st1{fill:#FFFFFF;}
</style>
<g>
	<path class="st0" d="M796.7,450.8C824.7,231.6,670,31.3,451.2,3.3S31.3,130,3.3,348.8S130,768.3,348.8,796.7
		C568,824.7,768.3,670,796.7,450.8z"/>
	<g transform="translate(50.181225, 45.198924)">
		<path class="st1" d="M494.2,211.6L325.4,380.4l-47.6-47.6C443.8,166.8,460.2,181.2,494.2,211.6L494.2,211.6z"/>
		<path class="st0" d="M325.4,384.4c-1.2,0-2-0.4-2.8-1.2l-48-47.6c-1.6-1.6-1.6-4,0-5.6c168.8-168.8,186.4-152.8,222-120.8
			c0.8,0.8,1.2,1.6,1.2,2.8s-0.4,2-1.2,2.8L327.8,383.2C327.4,384,326.2,384.4,325.4,384.4z M283.4,332.8l42,42L488.2,212
			C458.6,185.6,438.6,177.6,283.4,332.8L283.4,332.8z"/>
		<path class="st1" d="M373.8,428.8l-46-46L496.6,214C541.8,259.6,474.2,333.6,373.8,428.8z"/>
		<path class="st0" d="M373.8,432.8c-1.2,0-2-0.4-2.8-1.2l-46-46c-0.8-0.8-0.8-1.6-0.8-2.8c0-1.2,0.4-2,1.2-2.8l168.8-168.8
			c1.6-1.6,4-1.6,5.6,0c10.4,9.6,16,23.2,15.6,37.2c-0.8,44.4-51.2,100.8-138.4,183.2C375.8,432.4,374.6,432.8,373.8,432.8
			L373.8,432.8z M333.4,382.8c25.6,26,36.4,36.4,40.4,40.4c67.2-64,132.4-129.6,132.8-174.8c0.4-10.4-3.6-20.8-10.4-28.8
			L333.4,382.8z"/>
		<path class="st1" d="M278.6,334l34,34c0.8,0.8,0.8,1.6,0,2.4c-0.4,0.4-0.4,0.4-0.8,0.4L241.4,386c-3.6,0.4-6.8-2-7.6-5.6
			c-0.4-2,0.4-4,1.6-5.2l40.8-40.8C277,333.6,278.2,333.2,278.6,334z"/>
		<path class="st0" d="M240.2,390c-6,0-10.4-4.8-10.4-10.8c0-2.8,1.2-5.6,3.2-7.6l40.8-40.8c2.4-2,5.6-2,8,0l34,34
			c2.4,2,2.4,5.6,0,8c-0.8,0.8-1.6,1.2-2.8,1.6l-70.4,15.2C241.8,389.6,241,390,240.2,390L240.2,390z M277.4,338.4l-39.2,39.2
			c-0.8,0.8-1.2,2-0.4,3.2c0.4,1.2,1.6,1.6,2.8,1.2l66-14.4L277.4,338.4z"/>
		<path class="st1" d="M583.4,118c-25.6-24.8-66.8-24-91.6,2c-24.8,26-24,66.8,2,91.6c21.2,20.4,53.2,24,78.4,8.8l-45.6-45.6
			L583.4,118z"/>
		<path class="st0" d="M538.6,233.6c-38,0-68.8-30.8-68.8-68.8S500.6,96,538.6,96c17.6,0,34.8,6.8,47.6,19.2
			c0.8,0.8,1.2,1.6,1.2,2.8c0,1.2-0.4,2-1.2,2.8l-54,54l42.4,42.4c1.6,1.6,1.6,4,0,5.6c-0.4,0.4-0.4,0.4-0.8,0.8
			C563.4,230,551,233.6,538.6,233.6z M538.6,104.4c-33.6,0-60.8,27.2-60.4,60.8c0,33.6,27.2,60.8,60.8,60.4c9.2,0,18.4-2,26.8-6.4
			l-42-41.6c-0.8-0.8-1.2-1.6-1.2-2.8s0.4-2,1.2-2.8l53.6-53.6C566.6,109.2,553,104.4,538.6,104.4L538.6,104.4z"/>
		<path class="st1" d="M584.6,119.2l-0.8-0.8l-57.2,56.4l45.2,45.2c4.4-2.8,8.8-6,12.4-9.6C609.8,185.2,609.8,144.4,584.6,119.2
			L584.6,119.2z"/>
		<path class="st0" d="M572.2,224.4c-1.2,0-2-0.4-2.8-1.2l-45.6-45.6c-0.8-0.8-1.2-1.6-1.2-2.8s0.4-2,1.2-2.8l56.8-56.8
			c1.6-1.6,4-1.6,5.6,0l1.2,0.8c26.8,26.8,26.8,70,0.4,97.2c-4,4-8.4,7.6-13.2,10.4C573.4,224,572.6,224.4,572.2,224.4L572.2,224.4z
			 M532.2,174.8l40.4,40.4c3.2-2,6.4-4.8,8.8-7.2c22.8-22.8,24-60,2-84L532.2,174.8z"/>
		<path class="st1" d="M501,218.8c-9.6-9.6-25.2-9.6-34.8,0L315.4,369.6l25.2,25.2l159.6-140c10.4-8.8,11.2-24.4,2.4-34.8
			C501.8,219.6,501.4,219.2,501,218.8L501,218.8z"/>
		<path class="st0" d="M340.2,398.8c-1.2,0-2-0.4-2.8-1.2l-25.2-25.2c-1.6-1.6-1.6-4,0-5.6L463,216c11.2-11.2,29.2-11.2,40.4,0
			c11.2,11.2,11.2,29.2,0,40.4c-0.4,0.4-0.8,0.8-1.2,1.2l-159.6,140C342.2,398.4,341.4,398.8,340.2,398.8L340.2,398.8z M321,369.6
			l19.6,19.6l156.8-137.6c8.8-7.2,9.6-20.4,2.4-29.2c-7.2-8.8-20.4-9.6-29.2-2.4c-0.4,0.4-0.8,0.8-1.6,1.2L321,369.6z"/>
		<path class="st1" d="M199.8,541.2c-1.6,0.8-2.4,2.4-2,4l6.8,28.8c1.6,4-0.8,8.8-5.2,10c-3.2,1.2-6.8,0-8.8-2.4l-44-43.6
			l143.6-143.6l49.6,0.8l33.6,33.6C365.4,435.6,317,482.4,199.8,541.2L199.8,541.2z"/>
		<path class="st0" d="M196.6,588c-3.2,0-6.4-1.2-8.4-3.6l-43.6-43.6c-0.8-0.8-1.2-1.6-1.2-2.8c0-1.2,0.4-2,1.2-2.8l143.6-143.6
			c0.8-0.8,2-1.2,2.8-1.2l49.6,0.8c1.2,0,2,0.4,2.8,1.2L377,426c0.8,0.8,1.2,2,1.2,3.2c0,1.2-0.4,2-1.6,2.8l-2.8,2.4
			c-42.4,37.2-100,74.4-171.6,110l6.8,28.4c1.2,5.2-1.2,10.8-6,13.6C200.6,587.6,198.6,588,196.6,588z M152.7,538l41.2,40.8
			c1.2,2,3.6,2.8,5.6,1.6s2.8-3.6,1.6-5.6l-6.8-28.8c-0.8-3.6,0.8-6.8,4-8.4c70.8-35.6,128-72.4,170-108.8l-29.6-29.6l-46-0.8
			L152.7,538z"/>
		<path class="st1" d="M112.7,572.4l34.4-34.4l51.2,51.2l-81.6-5.6c-3.6-0.4-6-3.6-5.6-7.2C111.1,574.8,111.5,573.2,112.7,572.4
			L112.7,572.4z"/>
		<path class="st0" d="M198.2,592.8l-82-5.6c-6-0.4-10-5.6-9.6-11.6c0.4-2.4,1.2-4.8,3.2-6.4l34.4-34.4c1.6-1.6,4-1.6,5.6,0L201,586
			c1.2,1.2,1.6,2.8,0.8,4.4C201,592,199.8,592.8,198.2,592.8L198.2,592.8z M147.1,543.6l-31.6,31.6c-1.2,0.8-1.2,2.8,0,3.6
			c0.4,0.4,0.8,0.8,1.6,0.8l70.8,4.8L147.1,543.6z"/>
		<path class="st0" d="M276.2,412.8c-2.4,0-4-2-4-4c0-1.2,0.4-2,1.2-2.8l38.8-38.8c1.6-1.6,4-1.6,5.6,0l25.2,25.2
			c1.2,1.2,1.6,2.4,1.2,4c-0.4,1.2-1.6,2.4-3.2,2.8l-64,13.6C276.6,412.8,276.2,412.8,276.2,412.8L276.2,412.8z M315,375.6
			L288.6,402l43.2-9.2L315,375.6z"/>
		<path class="st1" d="M339.8,395.2l-44,9.6c-3.2,0.8-6.4-1.2-7.2-4.4c-0.4-2,0-4,1.6-5.6l24.4-24.4L339.8,395.2z"/>
		<path class="st0" d="M295,408.8c-5.6,0-10-4.4-10-10c0-2.8,1.2-5.2,2.8-7.2l24.4-24.4c1.6-1.6,4-1.6,5.6,0l25.2,25.2
			c1.2,1.2,1.6,2.4,1.2,4c-0.4,1.2-1.6,2.4-3.2,2.8l-44,9.6C296.2,408.8,295.4,408.8,295,408.8L295,408.8z M315,375.6l-21.6,21.6
			c-0.8,0.8-0.8,1.6-0.4,2.4c0.4,0.8,1.2,1.2,2.4,1.2l36.8-8L315,375.6z"/>
		<path class="st0" d="M585,157.6c-0.8-2.4-3.6-3.6-6-2.8c-2.4,0.8-3.6,3.6-2.8,6c0,0.4,0.4,0.8,0.4,1.2c2.4,4.8,1.6,10.8-1.6,15.2
			c-1.6,2-1.2,4.8,0.4,6.4c2,1.6,4.8,1.2,6.4-0.8C587.8,175.2,589,165.6,585,157.6L585,157.6z"/>
	</g>
</g>
</svg>
